<svg xmlns="http://www.w3.org/2000/svg" viewBox="0 0 720 620">
<rect width="720" height="620" rx="40" fill="#F9E7D6"/>
<ellipse cx="360" cy="520" rx="245" ry="48" fill="#E7C4A7"/>
<path d="M210 325c0-85 67-155 150-155s150 70 150 155v130H210z" fill="#FFF9F2"/>
<path d="M250 325c0-62 50-112 110-112s110 50 110 112" fill="none" stroke="#C98552" stroke-width="18" stroke-linecap="round"/>
<circle cx="315" cy="344" r="55" fill="#B66B3D"/><circle cx="400" cy="365" r="62" fill="#7A4632"/>
<circle cx="310" cy="335" r="6" fill="#4C2D20"/><circle cx="335" cy="365" r="6" fill="#4C2D20"/>
<circle cx="385" cy="350" r="7" fill="#F4D2B5"/><circle cx="425" cy="380" r="7" fill="#F4D2B5"/>
<path d="M235 440h250" stroke="#5E3B2E" stroke-width="15" stroke-linecap="round"/>
<path d="M265 128c42-45 145-47 187 0" fill="none" stroke="#9CAF88" stroke-width="17" stroke-linecap="round"/>
<path d="M356 130c-12-70 28-92 55-106" fill="none" stroke="#9CAF88" stroke-width="13" stroke-linecap="round"/>
<circle cx="556" cy="198" r="66" fill="#FFF"/>
<path d="M522 201h68M555 168v68" stroke="#C98552" stroke-width="15" stroke-linecap="round"/>
</svg>